<svg width="172" height="62" viewBox="0 0 172 62" fill="none" xmlns="http://www.w3.org/2000/svg">
<path d="M172 35.7526V35.8003C172 36.5931 171.336 37.2328 170.529 37.2204C165.525 37.1355 160.57 37.1293 156.597 33.5749C156.032 33.0677 155.176 33.0718 154.613 33.5811C150.691 37.1272 145.742 37.1251 140.729 37.2307C139.92 37.2473 139.252 36.6076 139.252 35.8106C139.252 35.0716 139.832 34.4547 140.582 34.3946C142.89 34.2083 145.143 34.0945 147.342 33.6867C153.195 32.5978 155.899 26.5613 152.933 21.4418C151.397 18.7921 148.701 18.169 145.931 17.8543C144.195 17.6576 142.443 17.5914 140.637 17.5003C139.867 17.461 139.265 16.8379 139.265 16.0823V16.0284C139.265 15.2335 139.929 14.5939 140.738 14.6083C145.7 14.7015 150.613 14.7222 154.668 18.1462C155.216 18.6099 156.025 18.5954 156.569 18.1276C160.54 14.7139 165.479 14.7036 170.483 14.6063C171.292 14.5897 171.958 15.2314 171.958 16.0264V16.0885C171.958 16.8399 171.364 17.461 170.599 17.5065C169.022 17.5997 167.443 17.6928 165.867 17.7922C165.371 17.8233 164.878 17.8729 164.389 17.9537C158.669 18.8914 156.386 22.0712 157.642 28.5258C158.277 31.7801 161.05 33.5852 165.489 33.9972C167.178 34.1524 168.87 34.2373 170.636 34.3387C171.402 34.3822 172 35.0053 172 35.7568V35.7526Z" fill="#1F316F"/>
<path d="M115.765 14.5695H130.431C134.341 14.5695 136.297 16.4905 136.297 20.2871V21.552C136.297 25.3486 134.341 27.2697 130.431 27.2697H111.988C111.253 27.2697 110.654 27.8555 110.654 28.5801V28.8865C110.654 32.0434 113.261 34.6042 116.476 34.6042H133.363C134.493 34.6042 135.408 35.5026 135.408 36.6122C135.408 37.049 135.186 37.2663 134.697 37.2663H115.765C111.225 37.2663 107.543 33.6519 107.543 29.1908V22.643C107.543 18.1839 111.223 14.5674 115.765 14.5674V14.5695ZM110.654 22.9059V23.2992C110.654 24.0217 111.251 24.6096 111.988 24.6096H129.765C132.254 24.6096 133.188 23.649 133.188 21.2477V20.5935C133.188 18.1922 132.254 17.2316 129.765 17.2316H116.433C113.242 17.2316 110.656 19.7717 110.656 22.9059H110.654Z" fill="#1F316F"/>
<path d="M76.7186 30.1942C76.7186 32.8998 78.4069 34.6036 81.1618 34.6036H94.4933C97.2482 34.6036 98.9829 32.9019 98.9829 30.1942V15.223C98.9829 14.7862 99.1599 14.5688 99.6489 14.5688H101.381C101.87 14.5688 102.092 14.7862 102.092 15.223V30.5006C102.092 34.5601 99.2927 37.2657 95.2037 37.2657H80.4936C76.3603 37.2657 73.6055 34.5601 73.6055 30.5006V15.223C73.6055 14.7862 73.8268 14.5688 74.2715 14.5688H76.0484C76.4931 14.5688 76.7144 14.7862 76.7144 15.223V30.1942H76.7186Z" fill="#1F316F"/>
<path d="M48.405 14.5695H63.0708C66.9806 14.5695 68.9367 16.4905 68.9367 20.2871V21.552C68.9367 25.3486 66.9806 27.2697 63.0708 27.2697H44.6279C43.8923 27.2697 43.2937 27.8555 43.2937 28.5801V28.9299C43.2937 32.0641 45.8799 34.6042 49.071 34.6042H66.0027C67.1324 34.6042 68.0472 35.5026 68.0472 36.6122C68.0472 37.049 67.8259 37.2663 67.3369 37.2663H48.405C43.8649 37.2663 40.1826 33.6519 40.1826 29.1908V22.643C40.1826 18.1839 43.8628 14.5674 48.405 14.5674V14.5695ZM43.2937 22.9059V23.2992C43.2937 24.0217 43.8902 24.6096 44.6279 24.6096H62.4047C64.894 24.6096 65.8277 23.649 65.8277 21.2477V20.5935C65.8277 18.1922 64.894 17.2316 62.4047 17.2316H49.0731C45.882 17.2316 43.2958 19.7717 43.2958 22.9059H43.2937Z" fill="#1F316F"/>
<path d="M21.731 37.2665H12.7098C8.62073 37.2665 5.46541 36.132 3.2881 33.8176C1.06653 31.5053 0 28.5367 0 24.914C0 21.2913 1.06653 18.3662 3.2881 16.0539C5.46541 13.7415 8.62073 12.5615 12.7098 12.5615H20.7972C26.2627 12.5615 29.8627 14.6565 31.5974 18.7595L32.1391 2.93337C32.1391 2.01631 32.04 0 33.018 0C33.9075 0 33.859 2.01631 33.859 2.93337L34.3944 24.914C34.3944 28.5367 33.2836 31.5053 31.1063 33.8176C28.8847 36.13 25.7737 37.2665 21.7289 37.2665H21.731ZM21.5097 34.6912C24.7535 34.6912 27.2428 33.7742 28.9753 31.9421C30.7079 30.11 31.5974 27.7956 31.5974 24.914C31.5974 22.0324 30.7079 19.72 28.9753 17.8859C27.2428 16.0518 24.7535 15.1368 21.5097 15.1368H12.8889C9.6451 15.1368 7.15584 16.0539 5.42326 17.8859C3.64642 19.72 2.80121 22.0324 2.80121 24.914C2.80121 27.7956 3.64642 30.108 5.42326 31.9421C7.15584 33.7762 9.6451 34.6912 12.8889 34.6912H21.5097Z" fill="#1F316F"/>
<path fill-rule="evenodd" clip-rule="evenodd" d="M12.1528 30.2718C11.415 30.2718 10.7111 30.1165 10.0724 29.8391C8.23022 29.0318 6.94238 27.1935 6.94238 25.0468C6.94238 23.6018 7.52623 22.2977 8.4684 21.3516C9.41057 20.4056 10.7132 19.8218 12.1528 19.8218H22.074C24.9511 19.8218 27.2843 22.1631 27.2843 25.0468C27.2843 26.4917 26.7005 27.7959 25.7583 28.742C25.301 29.2015 24.755 29.5742 24.1501 29.8391C23.5157 30.1186 22.8117 30.2718 22.0698 30.2718H12.1528ZM12.9137 26.972C14.0582 26.972 14.9856 26.0632 14.9856 24.9391C14.9856 23.8151 14.0582 22.9063 12.9137 22.9063C11.7691 22.9063 10.8417 23.8151 10.8417 24.9391C10.8417 26.0632 11.7691 26.972 12.9137 26.972ZM23.3618 24.9391C23.3618 26.0611 22.4344 26.972 21.2899 26.972C20.1454 26.972 19.218 26.0632 19.218 24.9391C19.218 23.8151 20.1454 22.9063 21.2899 22.9063C22.4344 22.9063 23.3618 23.8151 23.3618 24.9391Z" fill="#14CDC8"/>
<path d="M165.31 57.9367C164.146 57.9367 163.294 57.666 162.752 57.1247C162.211 56.5834 161.94 55.7309 161.94 54.5673V52.4766C161.94 51.3131 162.211 50.4637 162.752 49.9286C163.294 49.3873 164.146 49.1166 165.31 49.1166H169.221V45.4766C169.221 45.153 169.385 44.9912 169.715 44.9912C170.039 44.9912 170.201 45.153 170.201 45.4766V57.442C170.201 57.7718 170.039 57.9367 169.715 57.9367C169.385 57.9367 169.221 57.7718 169.221 57.442V56.6394C168.953 57.0687 168.561 57.3923 168.044 57.61C167.528 57.8278 166.853 57.9367 166.019 57.9367H165.31ZM165.31 56.9567H166.019C166.99 56.9567 167.764 56.8043 168.343 56.4994C168.928 56.1882 169.221 55.7247 169.221 55.1087V50.0966H165.31C164.42 50.0966 163.798 50.2739 163.443 50.6286C163.095 50.9771 162.92 51.5931 162.92 52.4766V54.5673C162.92 55.4571 163.095 56.0794 163.443 56.434C163.798 56.7825 164.42 56.9567 165.31 56.9567Z" fill="#1F316F"/>
<path d="M157.986 57.9367C156.841 57.9367 156.004 57.6723 155.475 57.1434C154.946 56.6145 154.682 55.7807 154.682 54.642V50.0966H153.571C153.241 50.0966 153.076 49.9317 153.076 49.6019C153.076 49.2784 153.241 49.1166 153.571 49.1166H154.682V47.1099C154.682 46.7801 154.843 46.6152 155.167 46.6152C155.497 46.6152 155.662 46.7801 155.662 47.1099V49.1166H158.004C158.328 49.1166 158.49 49.2784 158.49 49.6019C158.49 49.9317 158.328 50.0966 158.004 50.0966H155.662V54.642C155.662 55.5131 155.83 56.1167 156.166 56.4527C156.508 56.7887 157.114 56.9567 157.986 56.9567C158.166 56.9567 158.294 56.9971 158.368 57.078C158.449 57.1589 158.49 57.2803 158.49 57.442C158.49 57.7718 158.322 57.9367 157.986 57.9367Z" fill="#1F316F"/>
<path d="M149.832 57.9367C148.949 57.9367 148.299 57.7314 147.882 57.3207C147.471 56.91 147.266 56.266 147.266 55.3887V45.4766C147.266 45.153 147.431 44.9912 147.76 44.9912C148.084 44.9912 148.246 45.153 148.246 45.4766V55.3887C148.246 55.9922 148.358 56.406 148.582 56.63C148.806 56.8478 149.219 56.9567 149.823 56.9567C150.159 56.9567 150.327 57.1185 150.327 57.442C150.333 57.7718 150.168 57.9367 149.832 57.9367Z" fill="#1F316F"/>
<path d="M135.76 57.9367C134.615 57.9367 133.778 57.6723 133.249 57.1434C132.72 56.6145 132.456 55.7807 132.456 54.642V50.0966H131.345C131.015 50.0966 130.851 49.9317 130.851 49.6019C130.851 49.2784 131.015 49.1166 131.345 49.1166H132.456V47.1099C132.456 46.7801 132.618 46.6152 132.941 46.6152C133.271 46.6152 133.436 46.7801 133.436 47.1099V49.1166H135.779C136.102 49.1166 136.264 49.2784 136.264 49.6019C136.264 49.9317 136.102 50.0966 135.779 50.0966H133.436V54.642C133.436 55.5131 133.604 56.1167 133.94 56.4527C134.282 56.7887 134.889 56.9567 135.76 56.9567C135.94 56.9567 136.068 56.9971 136.143 57.078C136.224 57.1589 136.264 57.2803 136.264 57.442C136.264 57.7718 136.096 57.9367 135.76 57.9367Z" fill="#1F316F"/>
<path d="M124.328 57.5634C124.259 57.7127 124.175 57.8123 124.076 57.8621C123.976 57.9119 123.861 57.9367 123.73 57.9367C123.456 57.9367 123.264 57.8092 123.152 57.5541L119.689 49.798C119.558 49.4931 119.648 49.2815 119.959 49.1633C120.252 49.0389 120.464 49.126 120.594 49.4246L124.048 57.1527H123.45L127.128 49.4153C127.196 49.2722 127.286 49.1789 127.398 49.1353C127.51 49.0917 127.638 49.1011 127.781 49.1633C128.086 49.3002 128.17 49.518 128.033 49.8166L124.328 57.5634Z" fill="#1F316F"/>
<path d="M108.429 61.6702C108.099 61.6702 107.935 61.5053 107.935 61.1755V49.602C107.935 49.2785 108.099 49.1167 108.429 49.1167C108.753 49.1167 108.915 49.2785 108.915 49.602V50.4327C109.195 49.9972 109.596 49.6705 110.119 49.4527C110.641 49.2287 111.31 49.1167 112.125 49.1167H112.835C113.998 49.1167 114.848 49.3874 115.383 49.9287C115.924 50.4638 116.195 51.3132 116.195 52.4767V54.5674C116.195 55.731 115.924 56.5835 115.383 57.1248C114.848 57.6661 113.998 57.9368 112.835 57.9368H108.915V61.1755C108.915 61.5053 108.753 61.6702 108.429 61.6702ZM108.915 56.9568H112.835C113.724 56.9568 114.344 56.7826 114.692 56.4341C115.04 56.0795 115.215 55.4572 115.215 54.5674V52.4767C115.215 51.587 115.04 50.9678 114.692 50.6194C114.344 50.2709 113.724 50.0967 112.835 50.0967H112.125C111.13 50.0967 110.364 50.2523 109.829 50.5634C109.3 50.8745 108.995 51.3536 108.915 52.0007V56.9568Z" fill="#1F316F"/>
<path d="M91.0208 57.9183C90.2555 57.9183 89.6706 57.7565 89.2662 57.4329C88.8617 57.1031 88.619 56.6022 88.5381 55.9302C88.5195 55.7685 88.5537 55.644 88.6408 55.5569C88.7279 55.4636 88.8555 55.4169 89.0235 55.4169C89.179 55.4169 89.2941 55.4573 89.3688 55.5382C89.4497 55.6191 89.5026 55.7405 89.5275 55.9022C89.5835 56.288 89.7235 56.5587 89.9475 56.7142C90.1777 56.8636 90.5355 56.9382 91.0208 56.9382H94.0822C94.6609 56.9382 95.0591 56.8294 95.2769 56.6116C95.4947 56.3938 95.6036 55.9956 95.6036 55.4169C95.6036 54.832 95.4947 54.4307 95.2769 54.2129C95.0591 53.9951 94.6609 53.8862 94.0822 53.8862H91.0582C90.2493 53.8862 89.6457 53.6933 89.2475 53.3075C88.8555 52.9155 88.6595 52.3151 88.6595 51.5062C88.6595 50.6786 88.8555 50.0719 89.2475 49.6862C89.6395 49.2941 90.2431 49.0981 91.0582 49.0981H93.9889C95.3951 49.0981 96.176 49.7204 96.3316 50.9648C96.3565 51.1266 96.3222 51.2542 96.2289 51.3475C96.1418 51.4346 96.0174 51.4782 95.8556 51.4782C95.7 51.4782 95.5818 51.4377 95.5009 51.3568C95.4262 51.2759 95.3733 51.1577 95.3422 51.0022C95.2987 50.6537 95.1711 50.4142 94.9596 50.2835C94.7542 50.1466 94.4307 50.0782 93.9889 50.0782H91.0582C90.5168 50.0782 90.1435 50.1777 89.9382 50.3768C89.739 50.5759 89.6395 50.9524 89.6395 51.5062C89.6395 52.0351 89.7422 52.4022 89.9475 52.6075C90.1528 52.8066 90.5231 52.9062 91.0582 52.9062H94.0822C94.9409 52.9062 95.5725 53.1115 95.9769 53.5222C96.3814 53.9267 96.5836 54.5582 96.5836 55.4169C96.5836 56.2693 96.3814 56.9009 95.9769 57.3116C95.5725 57.716 94.9409 57.9183 94.0822 57.9183H91.0208Z" fill="#1F316F"/>
<path d="M76.3238 57.9368C75.994 57.9368 75.8291 57.7719 75.8291 57.4421V49.602C75.8291 49.2785 75.994 49.1167 76.3238 49.1167C76.6473 49.1167 76.8091 49.2785 76.8091 49.602V50.498C77.4002 49.5771 78.4705 49.1167 80.0198 49.1167H80.5425C81.7061 49.1167 82.5554 49.3874 83.0905 49.9287C83.6319 50.4638 83.9025 51.3132 83.9025 52.4767V57.4421C83.9025 57.7719 83.7408 57.9368 83.4172 57.9368C83.0874 57.9368 82.9225 57.7719 82.9225 57.4421V52.4767C82.9225 51.587 82.7452 50.9678 82.3905 50.6194C82.0421 50.2709 81.4261 50.0967 80.5425 50.0967H80.0198C79.0554 50.0967 78.2962 50.2492 77.7425 50.5541C77.1887 50.8589 76.8776 51.3349 76.8091 51.9821V57.4421C76.8091 57.7719 76.6473 57.9368 76.3238 57.9368Z" fill="#1F316F"/>
<path d="M65.8313 57.9367C64.6677 57.9367 63.8153 57.6692 63.2739 57.1341C62.7326 56.5927 62.4619 55.7434 62.4619 54.586V52.4767C62.4619 51.3007 62.7326 50.4451 63.2739 49.91C63.8153 49.3686 64.6677 49.1042 65.8313 49.1166H67.362C68.5255 49.1166 69.3749 49.3873 69.91 49.9286C70.4513 50.4638 70.722 51.3131 70.722 52.4767V54.5674C70.722 55.7309 70.4513 56.5834 69.91 57.1247C69.3749 57.6661 68.5255 57.9367 67.362 57.9367H65.8313ZM63.4419 54.586C63.4419 55.4634 63.6162 56.0794 63.9646 56.4341C64.3193 56.7825 64.9415 56.9567 65.8313 56.9567H67.362C68.2518 56.9567 68.8709 56.7825 69.2193 56.4341C69.5678 56.0794 69.742 55.4572 69.742 54.5674V52.4767C69.742 51.5869 69.5678 50.9678 69.2193 50.6193C68.8709 50.2709 68.2518 50.0966 67.362 50.0966H65.8313C65.2339 50.0904 64.7611 50.162 64.4126 50.3113C64.0642 50.4606 63.8153 50.7095 63.6659 51.058C63.5166 51.4064 63.4419 51.8793 63.4419 52.4767V54.586Z" fill="#1F316F"/>
<path d="M56.6616 47.4181C56.2322 47.4181 56.0176 47.1972 56.0176 46.7554V46.3354C56.0176 45.9061 56.2322 45.6914 56.6616 45.6914H57.0816C57.4985 45.6914 57.7069 45.9061 57.7069 46.3354V46.7554C57.7069 47.1972 57.4985 47.4181 57.0816 47.4181H56.6616ZM56.8763 57.9369C56.5465 57.9369 56.3816 57.772 56.3816 57.4422V49.6021C56.3816 49.2786 56.5465 49.1168 56.8763 49.1168C57.1998 49.1168 57.3616 49.2786 57.3616 49.6021V57.4422C57.3616 57.772 57.1998 57.9369 56.8763 57.9369Z" fill="#1F316F"/>
<path d="M51.427 57.9367C50.2821 57.9367 49.4452 57.6723 48.9163 57.1434C48.3874 56.6145 48.1229 55.7807 48.1229 54.642V50.0966H47.0123C46.6825 50.0966 46.5176 49.9317 46.5176 49.6019C46.5176 49.2784 46.6825 49.1166 47.0123 49.1166H48.1229V47.1099C48.1229 46.7801 48.2847 46.6152 48.6083 46.6152C48.9381 46.6152 49.1029 46.7801 49.1029 47.1099V49.1166H51.4456C51.7692 49.1166 51.931 49.2784 51.931 49.6019C51.931 49.9317 51.7692 50.0966 51.4456 50.0966H49.1029V54.642C49.1029 55.5131 49.2709 56.1167 49.607 56.4527C49.9492 56.7887 50.5559 56.9567 51.427 56.9567C51.6074 56.9567 51.735 56.9971 51.8096 57.078C51.8905 57.1589 51.931 57.2803 51.931 57.442C51.931 57.7718 51.763 57.9367 51.427 57.9367Z" fill="#1F316F"/>
<path d="M41.9752 49.1167C42.305 49.1167 42.4699 49.2785 42.4699 49.602V57.4421C42.4699 57.7719 42.305 57.9368 41.9752 57.9368C41.6517 57.9368 41.4899 57.7719 41.4899 57.4421V56.5555C40.8988 57.4764 39.8286 57.9368 38.2792 57.9368H37.7565C36.593 57.9368 35.7405 57.6661 35.1992 57.1248C34.664 56.5835 34.3965 55.731 34.3965 54.5674V49.602C34.3965 49.2785 34.5583 49.1167 34.8818 49.1167C35.2116 49.1167 35.3765 49.2785 35.3765 49.602V54.5674C35.3765 55.4572 35.5507 56.0795 35.8992 56.4341C36.2538 56.7826 36.873 56.9568 37.7565 56.9568H38.2792C39.2437 56.9568 40.0028 56.8012 40.5566 56.4901C41.1103 56.179 41.4215 55.703 41.4899 55.0621V49.602C41.4899 49.2785 41.6517 49.1167 41.9752 49.1167Z" fill="#1F316F"/>
<path d="M29.8323 57.9367C28.9488 57.9367 28.2985 57.7314 27.8816 57.3207C27.471 56.91 27.2656 56.266 27.2656 55.3887V45.4766C27.2656 45.153 27.4305 44.9912 27.7603 44.9912C28.0839 44.9912 28.2456 45.153 28.2456 45.4766V55.3887C28.2456 55.9922 28.3576 56.406 28.5816 56.63C28.8056 56.8478 29.2194 56.9567 29.823 56.9567C30.159 56.9567 30.327 57.1185 30.327 57.442C30.3332 57.7718 30.1683 57.9367 29.8323 57.9367Z" fill="#1F316F"/>
<path d="M17.2688 57.9367C16.1052 57.9367 15.2528 57.6692 14.7114 57.1341C14.1701 56.5927 13.8994 55.7434 13.8994 54.586V52.4767C13.8994 51.3007 14.1701 50.4451 14.7114 49.91C15.2528 49.3686 16.1052 49.1042 17.2688 49.1166H18.7995C19.963 49.1166 20.8124 49.3873 21.3475 49.9286C21.8889 50.4638 22.1595 51.3131 22.1595 52.4767V54.5674C22.1595 55.7309 21.8889 56.5834 21.3475 57.1247C20.8124 57.6661 19.963 57.9367 18.7995 57.9367H17.2688ZM14.8794 54.586C14.8794 55.4634 15.0537 56.0794 15.4021 56.4341C15.7568 56.7825 16.379 56.9567 17.2688 56.9567H18.7995C19.6893 56.9567 20.3084 56.7825 20.6568 56.4341C21.0053 56.0794 21.1795 55.4572 21.1795 54.5674V52.4767C21.1795 51.5869 21.0053 50.9678 20.6568 50.6193C20.3084 50.2709 19.6893 50.0966 18.7995 50.0966H17.2688C16.6714 50.0904 16.1986 50.162 15.8501 50.3113C15.5017 50.4606 15.2528 50.7095 15.1034 51.058C14.9541 51.4064 14.8794 51.8793 14.8794 52.4767V54.586Z" fill="#1F316F"/>
<path d="M3.7894 57.9183C3.02405 57.9183 2.43916 57.7565 2.03471 57.4329C1.63026 57.1031 1.38759 56.6022 1.3067 55.9302C1.28803 55.7685 1.32225 55.644 1.40937 55.5569C1.49648 55.4636 1.62404 55.4169 1.79204 55.4169C1.9476 55.4169 2.06271 55.4573 2.13738 55.5382C2.21827 55.6191 2.27116 55.7405 2.29605 55.9022C2.35205 56.288 2.49205 56.5587 2.71605 56.7142C2.94628 56.8636 3.30406 56.9382 3.7894 56.9382H6.85077C7.42944 56.9382 7.82767 56.8294 8.04545 56.6116C8.26323 56.3938 8.37212 55.9956 8.37212 55.4169C8.37212 54.832 8.26323 54.4307 8.04545 54.2129C7.82767 53.9951 7.42944 53.8862 6.85077 53.8862H3.82673C3.01783 53.8862 2.41427 53.6933 2.01604 53.3075C1.62404 52.9155 1.42803 52.3151 1.42803 51.5062C1.42803 50.6786 1.62404 50.0719 2.01604 49.6862C2.40805 49.2941 3.01161 49.0981 3.82673 49.0981H6.75744C8.16368 49.0981 8.94457 49.7204 9.10013 50.9648C9.12502 51.1266 9.0908 51.2542 8.99746 51.3475C8.91035 51.4346 8.7859 51.4782 8.62413 51.4782C8.46857 51.4782 8.35034 51.4377 8.26945 51.3568C8.19479 51.2759 8.1419 51.1577 8.11079 51.0022C8.06723 50.6537 7.93967 50.4142 7.72811 50.2835C7.52278 50.1466 7.19922 50.0782 6.75744 50.0782H3.82673C3.28539 50.0782 2.91205 50.1777 2.70672 50.3768C2.5076 50.5759 2.40805 50.9524 2.40805 51.5062C2.40805 52.0351 2.51071 52.4022 2.71605 52.6075C2.92139 52.8066 3.29161 52.9062 3.82673 52.9062H6.85077C7.70945 52.9062 8.34101 53.1115 8.74546 53.5222C9.14991 53.9267 9.35213 54.5582 9.35213 55.4169C9.35213 56.2693 9.14991 56.9009 8.74546 57.3116C8.34101 57.716 7.70945 57.9183 6.85077 57.9183H3.7894Z" fill="#1F316F"/>
</svg>
